<svg width="61" height="60" viewBox="0 0 61 60" fill="none" xmlns="http://www.w3.org/2000/svg">
<path d="M22.8133 20.44C22.6667 20 22.52 19.78 22.3733 19.78C22.2756 19.7311 22.1778 19.7067 22.08 19.7067L19.9533 19.4867V17.8733H29.12V19.4867L27.14 19.7067C26.8956 19.7067 26.7489 19.8044 26.7 20C26.6022 20 26.5533 20.1467 26.5533 20.44V40.24H34.18C34.3756 40.24 34.4978 40.1667 34.5467 40.02C34.5956 39.8244 34.6933 39.6778 34.84 39.58L35.28 35.3267H37.48V42H19.9533V40.46L22.08 40.24C22.3733 40.24 22.52 40.2156 22.52 40.1667C22.52 40.0689 22.5444 39.9956 22.5933 39.9467C22.74 39.8978 22.8133 39.7756 22.8133 39.58V20.44Z" fill="white"/>
<line x1="58.5" x2="58.5" y2="60" stroke="white" stroke-width="5"/>
<path d="M26.5 57H56.5" stroke="white" stroke-width="6"/>
<line x1="2.5" y1="34" x2="2.5" y2="4" stroke="white" stroke-width="5"/>
<line x1="60" y1="2.5" x2="-2.38418e-07" y2="2.5" stroke="white" stroke-width="5"/>
</svg>
